<?xml version="1.0" encoding="UTF-8" standalone="no"?>
<!-- Created with Inkscape (http://www.inkscape.org/) -->

<svg
   xmlns:dc="http://purl.org/dc/elements/1.1/"
   xmlns:cc="http://creativecommons.org/ns#"
   xmlns:rdf="http://www.w3.org/1999/02/22-rdf-syntax-ns#"
   xmlns:svg="http://www.w3.org/2000/svg"
   xmlns="http://www.w3.org/2000/svg"
   xmlns:sodipodi="http://sodipodi.sourceforge.net/DTD/sodipodi-0.dtd"
   xmlns:inkscape="http://www.inkscape.org/namespaces/inkscape"
   width="1052.3622"
   height="744.09448"
   id="svg3102"
   version="1.1"
   inkscape:version="0.48.2 r9819"
   sodipodi:docname="New document 8">
  <defs
     id="defs3104" />
  <sodipodi:namedview
     id="base"
     pagecolor="#ffffff"
     bordercolor="#666666"
     borderopacity="1.0"
     inkscape:pageopacity="0.0"
     inkscape:pageshadow="2"
     inkscape:zoom="0.98994949"
     inkscape:cx="604.77667"
     inkscape:cy="626.29889"
     inkscape:document-units="px"
     inkscape:current-layer="layer1"
     showgrid="false"
     showguides="true"
     inkscape:guide-bbox="true"
     inkscape:snap-grids="false"
     inkscape:window-width="1598"
     inkscape:window-height="1198"
     inkscape:window-x="1400"
     inkscape:window-y="0"
     inkscape:window-maximized="0">
    <inkscape:grid
       type="xygrid"
       id="grid4706"
       empspacing="5"
       dotted="true"
       visible="true"
       enabled="true"
       snapvisiblegridlinesonly="true" />
  </sodipodi:namedview>
  <metadata
     id="metadata3107">
    <rdf:RDF>
      <cc:Work
         rdf:about="">
        <dc:format>image/svg+xml</dc:format>
        <dc:type
           rdf:resource="http://purl.org/dc/dcmitype/StillImage" />
        <dc:title></dc:title>
      </cc:Work>
    </rdf:RDF>
  </metadata>
  <g
     inkscape:label="Layer 1"
     inkscape:groupmode="layer"
     id="layer1"
     transform="translate(0,-308.2677)">
    <path
       style="opacity:0.85000598000000005;fill:#000000;fill-opacity:1;fill-rule:nonzero;stroke:none"
       d="m 515.43706,411.29895 0,21.625 1.78125,0 0,-21.625 -1.78125,0 z m 69.78125,0.59375 0,2.4375 1.84375,0 0,-2.4375 -1.84375,0 z m 54.46875,0 0,2.4375 1.75,0 0,-2.4375 -1.75,0 z m 84.125,0 0,2.4375 1.84375,0 0,-2.4375 -1.84375,0 z m 54.4375,0 0,2.4375 1.78125,0 0,-2.4375 -1.78125,0 z m 17.375,1.5 0,2.4375 2.15625,0 0,-2.4375 -2.15625,0 z m 4.90625,0 0,2.4375 2.15625,0 0,-2.4375 -2.15625,0 z m -151.46875,0.65625 -1.84375,0.65625 0,3.53125 -2.875,0 0,1.59375 2.875,0 0,8.5625 c 0,2.68109 0.11228,4.9375 3.34375,4.9375 0.89369,0 1.78631,-0.23327 2.21875,-0.40625 l -0.125,-1.5 c -0.51892,0.2018 -0.96436,0.3125 -1.65625,0.3125 -1.47028,0 -1.9375,-1.08011 -1.9375,-2.40625 l 0,-9.5 3.3125,0 0,-1.59375 -3.3125,0 0,-4.1875 z m 138.5625,0 -1.84375,0.65625 0,3.53125 -2.875,0 0,1.59375 2.875,0 0,8.5625 c 0,2.68109 0.11229,4.9375 3.34375,4.9375 0.89108,0 1.78632,-0.23327 2.21875,-0.40625 l -0.125,-1.5 c -0.51892,0.2018 -0.93572,0.3125 -1.625,0.3125 -1.47289,0 -1.96875,-1.08011 -1.96875,-2.40625 l 0,-9.5 3.34375,0 0,-1.59375 -3.34375,0 0,-4.1875 z m 23.96875,0 -1.75,0.65625 0,3.53125 -2.90625,0 0,1.59375 2.90625,0 0,8.5625 c 0,2.68109 0.11501,4.9375 3.34375,4.9375 0.89369,0 1.78631,-0.23327 2.21875,-0.40625 l -0.125,-1.5 c -0.51895,0.2018 -1.02686,0.3125 -1.71875,0.3125 -1.4703,0 -1.96875,-1.08011 -1.96875,-2.40625 l 0,-9.5 3.34375,0 0,-1.59375 -3.34375,0 0,-4.1875 z m 20.53125,0.125 0,93.0625 7.59375,0 0,-93.0625 -7.59375,0 z m -304.03125,3.75 c -3.14498,0 -4.01717,1.80348 -4.59375,2.8125 l -0.0625,0 0,-2.5 -1.6875,0 c 0.11532,1.18199 0.0625,2.34442 0.0625,3.46875 l 0,11.21875 1.84375,0 0,-8.125 c 0,-3.66128 1.91967,-5.375 3.90625,-5.375 2.33514,0 3.15625,1.67431 3.15625,3.75 l 0,9.75 1.84375,0 0,-8.125 c 0,-3.66128 1.94831,-5.375 3.9375,-5.375 2.33515,0 3.0625,1.67431 3.0625,3.75 l 0,9.75 1.84375,0 0,-10.09375 c 0,-2.85407 -1.68687,-4.90625 -4.65625,-4.90625 -2.30369,0 -3.99318,1.33276 -4.65625,3.0625 l -0.0625,0 c -0.46127,-2.56578 -2.64282,-3.0625 -3.9375,-3.0625 z m 47.5625,0 c -3.05587,0 -4.11597,1.61136 -4.71875,2.9375 l -0.0625,0 0,-2.625 -1.75,0 c 0.11532,1.18199 0.125,2.34442 0.125,3.46875 l 0,11.28125 1.84375,0 0,-8.1875 c 0,-2.45046 0.99455,-5.3125 4.3125,-5.3125 2.50802,0 3.46875,1.76367 3.46875,4.53125 l 0,8.96875 1.84375,0 0,-9.4375 c 0,-3.22884 -1.42743,-5.625 -5.0625,-5.625 z m 33.875,0 c -3.71632,0 -6.15625,3.16156 -6.15625,7.65625 0,4.41083 1.81803,7.75 6.6875,7.75 1.35496,0 2.98152,-0.35608 4.25,-0.875 l 0,-1.8125 c -0.86487,0.54775 -2.79887,1.09375 -4.125,1.09375 -3.17118,0 -4.84375,-2.51148 -4.84375,-5.625 l 10.03125,0 0,-0.90625 c 0,-3.94957 -1.68976,-7.28125 -5.84375,-7.28125 z m 14.875,0 c -1.8765,0 -3.11818,1.48175 -3.78125,3.125 l -0.0625,0 0,-2.8125 -1.78125,0 c 0.11532,1.06667 0.0625,1.66683 0.0625,3.28125 l 0,11.46875 1.84375,0 0,-7.28125 c 0,-2.65226 0.77335,-5.875 3.65625,-5.875 0.46126,0 0.93772,0.0722 1.3125,0.1875 l 0,-1.90625 c -0.31714,-0.0865 -0.81756,-0.1875 -1.25,-0.1875 z m 7.75,0 c -2.41903,0 -4.78125,1.08828 -4.78125,4 0,4.26669 7.0625,3.6992 7.0625,7.1875 0,1.67208 -1.55413,2.625 -3.28125,2.625 -1.41522,0 -2.7795,-0.3585 -3.875,-0.90625 l -0.125,1.78125 c 1.29468,0.51892 2.71238,0.71875 4.125,0.71875 2.22245,0 5.125,-1.10522 5.125,-4.21875 2e-5,-4.81443 -7.21875,-4.44875 -7.21875,-7.1875 0,-1.87388 1.28498,-2.4375 3.15625,-2.4375 1.00903,0 2.32728,0.22382 3.28125,0.65625 l 0.125,-1.5625 c -1.29468,-0.49009 -2.81536,-0.65625 -3.59375,-0.65625 z m 82.09375,0 c -3.05589,0 -4.11072,1.61136 -4.71875,2.9375 l -0.0625,0 0,-2.625 -1.78125,0 c 0.11531,1.18199 0.125,2.34442 0.125,3.46875 l 0,11.28125 1.84375,0 0,-8.1875 c 0,-2.45046 0.99717,-5.3125 4.3125,-5.3125 2.50812,0 3.46875,1.76367 3.46875,4.53125 l 0,8.96875 1.84375,0 0,-9.4375 c 2e-5,-3.22884 -1.3988,-5.625 -5.03125,-5.625 z m 33.875,0 c -3.71632,0 -6.15625,3.16156 -6.15625,7.65625 0,4.41083 1.78678,7.75 6.65625,7.75 1.35758,0 3.0154,-0.35608 4.28125,-0.875 l 0,-1.8125 c -0.86487,0.54775 -2.80149,1.09375 -4.125,1.09375 -3.17379,0 -4.84375,-2.51148 -4.84375,-5.625 l 10.0625,0 0,-0.90625 c 0,-3.94957 -1.72363,-7.28125 -5.875,-7.28125 z m 14.875,0 c -1.87388,0 -3.15206,1.48175 -3.8125,3.125 l -0.0625,0 0,-2.8125 -1.78125,0 c 0.11532,1.06667 0.0625,1.66683 0.0625,3.28125 l 0,11.46875 1.84375,0 0,-7.28125 c -2e-5,-2.65226 0.8046,-5.875 3.6875,-5.875 0.46388,0 0.90386,0.0722 1.28125,0.1875 l 0,-1.90625 c -0.31711,-0.0865 -0.78632,-0.1875 -1.21875,-0.1875 z m 7.71875,0 c -2.42163,0 -4.78125,1.08828 -4.78125,4 0,4.26669 7.0625,3.6992 7.0625,7.1875 0,1.67208 -1.52027,2.625 -3.25,2.625 -1.41264,0 -2.7795,-0.3585 -3.875,-0.90625 l -0.125,1.78125 c 1.29731,0.51892 2.71238,0.71875 4.125,0.71875 2.21983,0 5.09375,-1.10522 5.09375,-4.21875 3e-5,-4.81443 -7.1875,-4.44875 -7.1875,-7.1875 3e-5,-1.87388 1.25112,-2.4375 3.125,-2.4375 1.00899,0 2.32989,0.22382 3.28125,0.65625 l 0.125,-1.5625 c -1.2973,-0.49009 -2.81537,-0.65625 -3.59375,-0.65625 z m 28.4375,0 c -1.29728,0 -3.18555,0.421 -4.3125,0.96875 l 0,1.78125 c 1.35756,-0.86487 2.78456,-1.1875 4.3125,-1.1875 2.44786,0 3.34375,1.24188 3.34375,3.75 l 0,0.78125 -0.34375,0 c -3.8028,0 -9.09375,0.164 -9.09375,5.09375 3e-5,1.32613 0.66093,4.21875 4.84375,4.21875 1.81363,0 3.90892,-0.98881 4.71875,-2.75 l 0,2.40625 1.84375,0 c -0.14677,-1.00901 -0.125,-1.97427 -0.125,-3.15625 l 0,-6.46875 c 0,-3.83425 -1.55767,-5.4375 -5.1875,-5.4375 z m -299.75,0.3125 0,9.375 c 0,3.22885 1.3988,5.71875 5.03125,5.71875 3.05324,0 4.11072,-1.70512 4.71875,-3.03125 l 0.0625,0 0,2.625 1.78125,0 c -0.11531,-1.18198 -0.125,-2.34442 -0.125,-3.46875 l 0,-11.21875 -1.78125,0 0,8.125 c 1e-5,2.44784 -1.05967,5.375 -4.375,5.375 -2.5055,0 -3.46875,-1.82617 -3.46875,-4.59375 l 0,-8.90625 -1.84375,0 z m 52.9375,0 0,9.4375 c -10e-6,3.23147 1.3363,5.65625 4.96875,5.65625 3.05587,0 4.17584,-1.64262 4.78125,-2.96875 l 0.0625,0 0,2.625 1.78125,0 c -0.11531,-1.18198 -0.125,-2.34442 -0.125,-3.46875 l 0,-11.28125 -1.84375,0 0,8.125 c 0,2.45046 -0.99717,5.375 -4.3125,5.375 -2.50812,0 -3.46875,-1.73242 -3.46875,-4.5 l 0,-9 -1.84375,0 z m 32.875,0 0,14.75 1.84375,0 0,-14.75 -1.84375,0 z m 4.40625,0 4.96875,14.75 2.15625,0 5.1875,-14.75 -1.90625,0 -4.25,12.71875 -0.0625,0 -4.0625,-12.71875 -2.03125,0 z m 50.0625,0 0,14.75 1.75,0 0,-14.75 -1.75,0 z m 14.46875,0 5.1875,14.875 -0.34375,1.3125 c -0.57658,1.90271 -1.13074,3.21875 -2.6875,3.21875 -0.66307,0 -1.02905,-0.13469 -1.375,-0.25 l -0.125,1.5625 c 0.60543,0.14414 1.30306,0.1875 1.96875,0.1875 2.04684,0 3.02424,-1.98198 3.71875,-4 l 5.90625,-16.90625 -1.90625,0 -4.25,12.25 -4.125,-12.25 -1.96875,0 z m 36.75,0 0,9.4375 c 0,3.23147 1.42743,5.65625 5.0625,5.65625 3.05587,0 4.11334,-1.64262 4.71875,-2.96875 l 0.0625,0 0,2.625 1.75,0 c -0.11532,-1.18198 -0.125,-2.34442 -0.125,-3.46875 l 0,-11.28125 -1.8125,0 0,8.125 c 2e-5,2.45046 -1.02842,5.375 -4.34375,5.375 -2.51074,0 -3.46875,-1.73242 -3.46875,-4.5 l 0,-9 -1.84375,0 z m 32.90625,0 0,14.75 1.84375,0 0,-14.75 -1.84375,0 z m 4.375,0 5,14.75 2.15625,0 5.15625,-14.75 -1.875,0 -4.28125,12.71875 -0.0625,0 -4.0625,-12.71875 -2.03125,0 z m 50.0625,0 0,14.75 1.78125,0 0,-14.75 -1.78125,0 z m -168.59375,1.25 c 2.71254,0 3.75,2.49672 3.75,5.0625 l -8.0625,0 c 0,-2.42164 1.63141,-5.0625 4.3125,-5.0625 z m 138.59375,0 c 2.71256,0 3.71875,2.49672 3.71875,5.0625 l -8.03125,0 c 2e-5,-2.42164 1.6314,-5.0625 4.3125,-5.0625 z m 53.71875,6.03125 0.53125,0 0,0.90625 c 2e-5,1.58559 -0.13694,5.3125 -4.40625,5.3125 -1.66944,0 -3,-0.69346 -3,-2.625 -3e-5,-3.22884 3.73265,-3.59375 6.875,-3.59375 z m 80.53125,18.40625 c -13.20891,1e-5 -16.82574,7.7569 -19.25,12 l -0.28125,-0.0625 0,-10.5 -7.34375,0 c 0.48483,4.97169 0.46875,9.89443 0.46875,14.625 l 0,47.25 7.65625,0 0,-34.21875 c 0,-15.40253 8.23073,-22.53125 16.59375,-22.53125 9.81495,0 13.09375,6.92369 13.09375,15.65625 l 0,41.09375 7.59375,0 0,-34.21875 c 0,-15.40253 8.29323,-22.53125 16.65625,-22.53125 9.81493,0 13.03125,6.92369 13.03125,15.65625 l 0,41.09375 7.65625,0 0,-42.53125 c 2e-5,-12.00595 -7.01968,-20.78125 -19.5,-20.78125 -9.69961,1e-5 -16.96407,5.84962 -19.75,13.125 l -0.25,0 c -1.93938,-10.79514 -10.92371,-13.125 -16.375,-13.125 z m -115.90625,1.3125 0,39.65625 c -2e-5,13.60989 5.79344,23.78125 21.09375,23.78125 12.8708,0 17.51244,-6.94105 20.0625,-12.53125 l 0.25,0 0,11.09375 7.40625,0 c -0.48749,-4.97954 -0.53125,-9.82144 -0.53125,-14.5625 l 0,-47.4375 -7.65625,0 0,34.28125 c 0,10.32863 -4.31493,22.59375 -18.28125,22.59375 -10.56452,0 -14.75,-7.52488 -14.75,-19.1875 l 0,-37.6875 -7.59375,0 z m -75.8125,0.0625 0,39.125 c 0,13.94535 6.37304,24.25 21.03125,24.25 8.40758,1e-5 15.38799,-3.8316 20.3125,-9.84375 l 0.25,0 0,8.40625 15.21875,0 0,-61.9375 -16.0625,0 0,30.34375 c 0,7.93321 -2.56399,20.5625 -14.21875,20.5625 -10.32866,0 -10.40625,-10.23573 -10.40625,-17.8125 l 0,-33.09375 -16.125,0 z"
       id="path2608"
       inkscape:connector-curvature="0" />
    <path
       style="opacity:0.85000598000000005;fill:#000000;fill-opacity:1;fill-rule:nonzero;stroke:none"
       d="M 279.25 95.09375 L 279.25 95.96875 L 280.21875 95.96875 L 280.21875 102.1875 L 279.1875 102.1875 L 279.1875 103.03125 L 282.375 103.03125 L 282.46875 102.1875 L 281.40625 102.1875 L 281.46875 95.96875 L 282.46875 96.03125 L 282.46875 95.09375 L 279.25 95.09375 z M 284.8125 95.15625 L 284.5625 97.1875 L 285.53125 97.34375 L 285.65625 96.15625 L 287.1875 96.34375 L 286.375 102.5 L 285.34375 102.375 L 285.21875 103.21875 L 288.46875 103.625 L 288.625 102.78125 L 287.5625 102.65625 L 288.34375 96.5625 L 289.875 96.75 L 289.71875 97.9375 L 290.71875 98.0625 L 290.96875 96.03125 L 284.8125 95.15625 z M 276.21875 95.25 L 275.25 95.3125 L 275.3125 95.90625 C 274.74903 95.4581 274.24451 95.28589 273.46875 95.375 C 272.10855 95.52963 271.2361 96.47911 271.375 97.71875 C 271.4353 98.2403 271.69015 98.6595 272.09375 98.96875 C 272.46329 99.24656 272.83494 99.41231 273.8125 99.6875 C 275.00497 100.00199 275.2847 100.10565 275.5625 100.28125 C 275.79051 100.44898 275.92944 100.77644 275.96875 101.125 C 276.06315 101.95056 275.59188 102.5488 274.65625 102.65625 C 274.02463 102.72965 273.45804 102.51812 273.09375 102.125 C 272.83953 101.86554 272.70624 101.58707 272.625 101 L 271.65625 101.0625 L 271.90625 103.6875 L 272.875 103.5625 L 272.8125 102.90625 C 273.43363 103.4278 274.06497 103.59697 274.90625 103.5 C 276.42632 103.32702 277.37338 102.23783 277.21875 100.875 C 277.15325 100.28794 276.90622 99.80664 276.5 99.5 C 276.07804 99.17764 275.74286 99.0022 274.40625 98.65625 C 272.99887 98.28671 272.63064 98.13404 272.5625 97.53125 C 272.4839 96.84722 273.03372 96.31572 273.875 96.21875 C 274.88664 96.10343 275.37904 96.55591 275.5625 97.59375 L 276.5 97.46875 L 276.21875 95.25 z M 294.1875 96.6875 L 293.71875 98.125 L 295.09375 98.5 L 295.5 97.0625 L 294.1875 96.6875 z M 265.75 97.125 C 265.36113 97.1768 264.81487 97.31504 264.03125 97.53125 L 261.34375 98.3125 L 261.5625 99.15625 L 262.53125 98.84375 L 264.1875 104.875 L 263.1875 105.125 L 263.46875 105.90625 L 266.40625 105.125 L 266.21875 104.28125 L 265.28125 104.53125 L 264.5625 101.90625 L 266.0625 101.53125 L 268.5625 104.53125 L 270.40625 104.03125 L 270.125 103.15625 L 269.21875 103.4375 L 267.0625 101.125 C 268.15538 100.47504 268.53829 99.70195 268.25 98.65625 C 268.03247 97.87263 267.49451 97.36834 266.71875 97.1875 C 266.40819 97.1154 266.13886 97.07322 265.75 97.125 z M 296.59375 97.40625 L 292.15625 103.5625 L 291.25 103.21875 L 290.96875 104.09375 L 293.78125 104.875 L 294 104.15625 L 293.125 103.875 L 294.125 102.5 L 296.75 103.28125 L 296.75 104.9375 L 295.875 104.6875 L 295.625 105.46875 L 298.78125 106.375 L 298.96875 105.53125 L 297.96875 105.25 L 297.71875 97.71875 L 296.59375 97.40625 z M 265.84375 98.03125 C 265.92811 98.032762 265.98911 98.0494 266.0625 98.0625 C 266.529 98.1306 266.91574 98.44459 267.0625 98.96875 C 267.19355 99.44574 267.07473 99.83913 266.78125 100.15625 C 266.52441 100.42357 266.27938 100.55304 265.34375 100.8125 L 264.375 101.0625 L 263.65625 98.59375 L 264.625 98.3125 C 265.07054 98.19063 265.3358 98.10083 265.5625 98.0625 C 265.67585 98.04335 265.75939 98.029738 265.84375 98.03125 z M 298.84375 98.1875 L 298.4375 99.625 L 299.75 100.03125 L 300.21875 98.59375 L 298.84375 98.1875 z M 296.75 98.59375 C 296.6976 99.20964 296.7058 99.47771 296.6875 100.9375 L 296.75 102.375 L 294.65625 101.78125 L 295.4375 100.6875 C 296.15298 99.62083 296.52723 99.01046 296.75 98.59375 z M 258.28125 99.5 L 253.09375 102 L 253.5 102.78125 L 254.40625 102.3125 L 257.03125 107.875 L 256.125 108.34375 L 256.5 109.125 L 261.75 106.625 L 260.84375 104.6875 L 259.90625 105.125 L 260.4375 106.25 L 258.15625 107.34375 L 256.90625 104.8125 L 259.53125 103.625 L 259.125 102.78125 L 256.5 104.03125 L 255.46875 101.78125 L 257.75 100.75 L 258.21875 101.71875 L 259.0625 101.25 L 258.28125 99.5 z M 303.28125 99.8125 L 302.375 101.65625 L 303.21875 102.125 L 303.75 101 L 305.125 101.71875 L 302.375 107.21875 L 301.46875 106.78125 L 301.0625 107.5625 L 304 109 L 304.40625 108.28125 L 303.5 107.8125 L 306.25 102.25 L 307.5625 102.90625 L 307.03125 104.03125 L 307.9375 104.40625 L 308.875 102.5625 L 303.28125 99.8125 z M 250.875 103.28125 L 248.4375 104.9375 L 248.90625 105.65625 L 249.625 105.1875 L 250.40625 108 C 250.46915 108.22801 250.8248 109.20587 250.9375 109.59375 C 251.17075 110.30399 251.30928 110.81816 251.40625 111.15625 C 251.2359 111.02259 251.05583 110.92801 250.875 110.78125 C 249.8555 109.91376 249.56932 109.63868 248.90625 109.125 L 246.5625 107.28125 L 247.28125 106.78125 L 246.8125 106.0625 L 244.1875 107.875 L 244.71875 108.53125 L 245.5625 108 L 251.53125 112.53125 L 252.4375 111.875 L 250.5625 104.53125 L 251.34375 104.03125 L 250.875 103.28125 z M 313.78125 105.59375 L 313.1875 106.3125 L 313.96875 106.90625 L 311.625 109.78125 C 310.71034 110.88724 310.5371 111.19217 310.4375 111.6875 C 310.28812 112.59954 310.71558 113.62282 311.625 114.375 C 312.42435 115.03544 313.29703 115.28507 314.09375 115.09375 C 314.68344 114.96009 315.13775 114.57958 316 113.53125 L 318.4375 110.625 L 319.21875 111.21875 L 319.8125 110.5625 L 317.375 108.59375 L 316.84375 109.3125 L 317.625 109.96875 L 315.21875 112.875 C 314.45871 113.80015 314.3637 113.88187 314.09375 114.03125 C 313.54338 114.32216 312.90763 114.23505 312.28125 113.71875 C 311.72564 113.26273 311.48126 112.70925 311.5625 112.15625 C 311.6175 111.78934 311.57724 111.74448 312.53125 110.5625 L 314.875 107.6875 L 315.75 108.34375 L 316.25 107.6875 L 313.78125 105.59375 z M 280.625 106.25 C 255.0144 106.25 234.21875 126.99605 234.21875 152.625 C 234.21875 178.25394 255.0144 199.09375 280.625 199.09375 C 306.23298 199.09375 326.9375 178.25394 326.9375 152.625 C 326.93749 126.99605 306.23298 106.25 280.625 106.25 z M 280.625 108.59375 C 286.03698 108.59375 290.22678 113.89627 293.0625 122.4375 C 295.13032 121.39966 297.15999 120.58444 299.03125 120 C 299.11515 119.58853 299.30789 119.19474 299.625 118.875 C 300.48463 118.01537 301.82787 118.01275 302.6875 118.875 C 302.7609 118.9484 302.84597 119.01513 302.90625 119.09375 C 306.56491 118.61414 309.6219 119.30939 311.75 121.4375 C 315.57639 125.26651 314.78867 132.07386 310.75 140.125 C 313.09038 140.90338 315.24628 141.82446 317.0625 142.8125 C 317.3901 142.61594 317.74478 142.46875 318.15625 142.46875 C 319.37231 142.46875 320.3125 143.50008 320.3125 144.71875 C 320.3125 144.81045 320.323 144.87964 320.3125 144.96875 C 323.07221 147.16761 324.65625 149.71065 324.65625 152.625 C 324.65626 158.0396 319.28861 162.32053 310.75 165.15625 C 311.89005 167.43112 312.7827 169.59125 313.375 171.625 C 313.74192 171.7193 314.08671 171.93046 314.375 172.21875 C 315.23724 173.08099 315.23724 174.45288 314.375 175.3125 C 314.3069 175.3859 314.23487 175.43973 314.15625 175.5 C 314.50743 178.92803 313.77589 181.78661 311.75 183.8125 C 307.92099 187.64413 301.1084 186.88504 293.0625 182.84375 C 292.27363 185.23393 291.3814 187.34769 290.375 189.1875 C 290.68164 189.56752 290.90625 190.09821 290.90625 190.625 C 290.90624 191.84368 289.90356 192.8125 288.6875 192.8125 C 288.46736 192.8125 288.29293 192.77925 288.09375 192.71875 C 285.94206 195.30025 283.43451 196.71875 280.625 196.71875 C 275.20778 196.71875 270.92423 191.39808 268.09375 182.84375 C 265.84509 183.9707 263.70029 184.87907 261.6875 185.46875 C 261.7085 186.05844 261.48203 186.64035 261.03125 187.09375 C 260.17162 187.95338 258.79713 187.956 257.9375 187.09375 C 257.70163 186.85788 257.54495 186.54354 257.4375 186.25 C 254.15886 186.52257 251.39525 185.77287 249.4375 183.8125 C 245.60849 179.98349 246.37282 173.20739 250.40625 165.15625 C 248.16021 164.41194 246.13881 163.59188 244.375 162.65625 C 243.97139 163.128 243.35843 163.375 242.6875 163.375 C 241.46882 163.375 240.53125 162.4348 240.53125 161.21875 C 240.53125 160.87542 240.57989 160.50704 240.71875 160.21875 C 238.03765 158.03823 236.53125 155.49741 236.53125 152.625 C 236.53125 147.20777 241.8624 142.96334 250.40625 140.125 C 249.37627 138.07028 248.58182 136.1394 248 134.28125 C 247.37625 134.33365 246.69574 134.10461 246.21875 133.625 C 245.35912 132.76538 245.35912 131.35962 246.21875 130.5 C 246.45462 130.26412 246.76897 130.07621 247.0625 129.96875 C 246.66414 126.45686 247.37754 123.5652 249.4375 121.5 C 253.26651 117.67099 260.04785 118.46133 268.09375 122.5 C 268.8171 120.31424 269.62707 118.32611 270.53125 116.59375 C 270.18268 116.20587 270 115.65723 270 115.09375 C 270 113.87507 270.93757 112.9375 272.15625 112.9375 C 272.37378 112.9375 272.61069 112.9425 272.8125 113 C 275.03233 110.16952 277.67396 108.59375 280.625 108.59375 z M 242.21875 109.59375 L 239.9375 111.8125 L 240.53125 112.40625 L 241.25 111.75 L 245.5 116.28125 L 244.78125 116.9375 L 245.375 117.59375 L 247.71875 115.34375 L 247.125 114.6875 L 246.34375 115.40625 L 242.09375 110.90625 L 242.8125 110.25 L 242.21875 109.59375 z M 280.625 110.78125 C 278.19026 110.78125 275.99929 111.91928 274.0625 113.96875 C 274.26955 114.30422 274.40625 114.6718 274.40625 115.09375 C 274.40624 116.31243 273.37231 117.3125 272.15625 117.3125 C 271.96231 117.3125 271.83447 117.2973 271.65625 117.25 C 270.68131 118.88277 269.75499 120.7963 268.96875 122.9375 C 272.64575 124.86904 276.55265 127.43849 280.5625 130.5625 C 284.59069 127.42014 288.52865 124.81179 292.21875 122.875 C 289.48 115.38472 285.54165 110.78125 280.625 110.78125 z M 321.96875 112.78125 L 321.3125 113.3125 L 321.96875 114.09375 L 317.25 118.15625 L 316.59375 117.375 L 315.9375 117.90625 L 319.75 122.4375 L 321.375 121 L 320.71875 120.28125 L 319.75 121.0625 L 318.03125 119.03125 L 322.75 115.03125 L 323.40625 115.8125 L 324.0625 115.28125 L 321.96875 112.78125 z M 237.96875 113.71875 L 236.0625 116.125 L 236.71875 116.65625 L 237.375 115.8125 L 239.21875 117.25 C 240.18845 118.00218 241.02646 118.6579 241.78125 119.21875 C 240.47871 118.93571 238.59026 118.56894 237.5 118.375 L 234.6875 117.90625 L 233.1875 119.8125 L 233.84375 120.34375 L 234.5 119.53125 L 239.28125 123.40625 L 238.6875 124.1875 L 239.34375 124.71875 L 241.25 122.375 L 240.59375 121.84375 L 239.9375 122.6875 L 237.96875 121.125 C 237.68308 120.89437 236.04995 119.63968 235.15625 118.96875 C 235.44716 119.01595 235.76897 119.02561 236.0625 119.09375 C 237.64285 119.43708 238.05613 119.56614 239.46875 119.8125 L 242.8125 120.40625 L 243.53125 119.46875 L 238.03125 115.09375 L 238.6875 114.3125 L 237.96875 113.71875 z M 327.59375 119.53125 L 326.8125 120 L 327.40625 120.90625 L 322.03125 124.0625 L 321.5 123.15625 L 320.78125 123.59375 L 322.34375 126.21875 L 323.09375 125.84375 L 322.5 124.90625 L 324.96875 123.46875 C 326.76662 122.37325 326.98392 122.28222 327.875 121.71875 C 327.094 122.53382 326.22978 123.44663 325.3125 124.46875 L 323.15625 126.8125 L 323.65625 127.75 L 326.875 127.09375 C 328.16182 126.83429 328.7757 126.64332 330.46875 126.21875 L 329.4375 126.8125 L 328.84375 127.15625 L 328.1875 127.53125 C 327.87824 127.69374 327.67762 127.82521 327.59375 127.875 L 325.125 129.3125 L 324.59375 128.40625 L 323.875 128.84375 L 325.5 131.59375 L 326.21875 131.21875 L 325.6875 130.28125 L 331.0625 127.15625 L 331.59375 128.0625 L 332.3125 127.59375 L 330.9375 125.25 L 327.875 125.96875 C 326.24223 126.33829 325.83519 126.35425 324.3125 126.75 C 325.43683 125.64401 325.89259 125.23543 326.8125 124.25 L 328.96875 121.96875 L 327.59375 119.53125 z M 256.96875 120.65625 C 254.56943 120.74881 252.52155 121.50741 251 123.03125 C 249.25715 124.77148 248.55404 127.1667 248.65625 130.03125 C 248.92096 130.13871 249.16009 130.28247 249.375 130.5 C 250.23462 131.35963 250.23462 132.76538 249.375 133.625 L 249.15625 133.75 C 249.61489 135.64223 250.35832 137.71303 251.34375 139.84375 C 255.31428 138.60672 259.97832 137.65763 265.03125 137.03125 C 265.65763 131.96522 266.54422 127.3169 267.78125 123.34375 C 264.16452 121.66118 260.88696 120.75945 258.03125 120.65625 C 257.67429 120.64335 257.31151 120.64303 256.96875 120.65625 z M 303.34375 120.65625 C 303.29915 121.15421 303.06752 121.64861 302.6875 122.03125 C 301.82787 122.89088 300.48463 122.8935 299.625 122.03125 C 299.4101 121.81634 299.20121 121.51733 299.09375 121.25 C 297.29325 121.71651 295.41642 122.47324 293.40625 123.40625 C 294.64328 127.3794 295.58975 131.97046 296.21875 137.03125 C 301.27167 137.65763 305.87584 138.60672 309.84375 139.84375 C 313.20364 132.60244 313.63407 126.5117 310.15625 123.03125 C 308.4501 121.32248 306.12967 120.58811 303.34375 120.65625 z M 231.46875 122.4375 L 230.03125 125.125 L 230.75 125.5625 L 231.28125 124.65625 L 234.625 126.4375 C 235.67594 127.00884 235.74094 127.10788 235.9375 127.34375 C 236.328 127.8286 236.32538 128.53452 235.9375 129.25 C 235.59418 129.87899 235.11812 130.19779 234.5625 130.21875 C 234.19035 130.23445 234.18298 130.20762 232.84375 129.5 L 229.59375 127.75 L 230.03125 126.8125 L 229.3125 126.4375 L 227.75 129.3125 L 228.53125 129.6875 L 229 128.78125 L 232.28125 130.625 C 233.54186 131.30903 233.86657 131.40363 234.375 131.40625 C 235.29491 131.38265 236.15527 130.72534 236.71875 129.6875 C 237.21146 128.77808 237.33808 127.84068 237 127.09375 C 236.75626 126.54076 236.2836 126.20984 235.09375 125.5625 L 231.75 123.75 L 232.28125 122.8125 L 231.46875 122.4375 z M 268.6875 123.8125 C 267.38758 127.59695 266.36629 132.04686 265.6875 136.96875 C 268.29259 136.66212 271.00823 136.38628 273.8125 136.25 C 275.89867 134.35515 277.96867 132.63015 280.03125 131 C 276.08692 128.00179 272.27016 125.57107 268.6875 123.8125 z M 292.53125 123.8125 C 288.93287 125.56844 285.12154 127.9913 281.15625 131 C 283.21883 132.62752 285.28883 134.35777 287.375 136.25 C 290.19499 136.3889 292.94693 136.6595 295.5625 136.96875 C 294.88896 132.04162 293.82855 127.59695 292.53125 123.8125 z M 280.625 131.40625 C 278.6987 132.88963 276.73113 134.51764 274.78125 136.25 C 276.6892 136.1714 278.65153 136.125 280.625 136.125 C 282.60109 136.125 284.46967 136.17136 286.375 136.25 C 284.42512 134.51764 282.54868 132.88963 280.625 131.40625 z M 230.375 132.4375 C 230.09326 132.4375 229.87115 132.56634 229.65625 132.78125 C 229.22643 133.21106 229.22643 133.91393 229.65625 134.34375 C 230.08606 134.77618 230.72381 134.77618 231.15625 134.34375 C 231.58606 133.91393 231.58606 133.21106 231.15625 132.78125 C 230.94134 132.56634 230.65674 132.4375 230.375 132.4375 z M 330.09375 132.4375 C 329.81202 132.4375 329.52741 132.56634 329.3125 132.78125 C 328.88269 133.21106 328.88531 133.91393 329.3125 134.34375 C 329.74231 134.77618 330.44518 134.77618 330.875 134.34375 C 331.30481 133.91393 331.30481 133.21106 330.875 132.78125 C 330.66009 132.56634 330.37549 132.4375 330.09375 132.4375 z M 333.875 136.0625 C 333.72982 136.06912 333.58787 136.08602 333.4375 136.125 C 332.92644 136.25604 332.56147 136.58833 332.3125 137.03125 C 332.08711 137.43748 331.97741 137.86599 331.84375 138.875 C 331.69699 140.0963 331.60503 140.41998 331.46875 140.71875 C 331.33509 140.96773 331.08808 141.12964 330.75 141.21875 C 329.94803 141.42579 329.32962 140.97454 329.09375 140.0625 C 328.93388 139.44661 329.03952 138.82558 329.375 138.40625 C 329.59777 138.11796 329.84015 137.97499 330.40625 137.8125 L 330.15625 136.84375 L 327.65625 137.5 L 327.9375 138.46875 L 328.59375 138.34375 C 328.15869 139.0304 328.03772 139.61981 328.25 140.4375 C 328.63264 141.92088 329.79887 142.74958 331.125 142.40625 C 331.69634 142.25687 332.19114 141.94291 332.4375 141.5 C 332.69958 141.03611 332.81412 140.65718 332.96875 139.28125 C 333.14172 137.83456 333.28794 137.46189 333.875 137.3125 C 334.53807 137.13953 335.04034 137.58593 335.25 138.40625 C 335.50684 139.3943 335.22257 139.98752 334.21875 140.3125 L 334.40625 141.15625 L 336.65625 140.65625 L 336.375 139.71875 L 335.84375 139.84375 C 336.21066 139.21999 336.25644 138.66628 336.0625 137.90625 C 335.76209 136.74588 334.89125 136.01617 333.875 136.0625 z M 227.5625 136.375 C 225.98436 136.50375 224.77775 137.45307 224.40625 139 C 223.91616 141.03375 225.22473 142.84277 227.5625 143.40625 C 230.02868 143.99855 231.90568 143.04706 232.40625 140.96875 C 232.89897 138.90617 231.65328 137.17033 229.25 136.59375 C 228.64917 136.44895 228.08854 136.33208 227.5625 136.375 z M 280.5625 136.71875 C 278.34529 136.71875 276.18536 136.73371 274.0625 136.84375 C 272.47691 138.27209 270.85636 139.79989 269.28125 141.375 C 267.71924 142.937 266.26423 144.52388 264.84375 146.09375 C 264.73368 148.23233 264.6875 150.39206 264.6875 152.625 C 264.6875 154.85269 264.73371 157.05416 264.84375 159.1875 C 266.26685 160.76524 267.7765 162.339 269.34375 163.90625 C 270.91361 165.47612 272.48215 167.00915 274.0625 168.4375 C 276.18274 168.54495 278.34529 168.5625 280.5625 168.5625 C 282.79019 168.5625 284.9604 168.54754 287.09375 168.4375 C 288.67147 167.01177 290.24525 165.47088 291.8125 163.90625 C 293.39285 162.32066 294.91016 160.78358 296.34375 159.1875 C 296.45382 157.06726 296.53125 154.83959 296.53125 152.625 C 296.53125 150.40517 296.45121 148.27911 296.34375 146.15625 C 294.9154 144.56804 293.48136 142.95273 291.90625 141.375 C 290.33377 139.80251 288.67672 138.27209 287.09375 136.84375 C 284.96302 136.73368 282.78757 136.71875 280.5625 136.71875 z M 280.5625 136.84375 C 280.96086 136.84375 281.28125 137.18511 281.28125 137.5625 L 281.28125 146.28125 C 284.56775 146.04014 287.4375 144.35172 287.4375 142.6875 C 287.4375 141.66015 286.35656 140.55137 284.75 139.84375 C 284.41716 139.94075 283.9665 140.01876 283.5 139.9375 C 282.56699 139.77239 281.91875 139.27901 282 138.8125 C 282.0839 138.346 282.90812 138.05626 283.84375 138.21875 C 284.5435 138.34455 285.07682 138.65143 285.28125 139 C 287.66095 139.77577 289.21875 141.15957 289.21875 142.6875 C 289.21875 144.53518 286.92682 146.11838 283.6875 146.75 C 286.43411 147.36065 288.34375 148.68255 288.34375 150.28125 C 288.34375 151.94284 286.29459 153.36878 283.375 153.9375 C 285.85168 154.48524 287.5625 155.71743 287.5625 157.15625 C 287.5625 158.6475 285.73271 159.9212 283.125 160.4375 C 285.33435 160.93284 286.84375 162.08556 286.84375 163.375 C 286.84376 164.90032 284.73693 166.16212 281.875 166.46875 C 281.875 166.46875 281.75 166.34998 281.75 166.1875 C 281.745 166.0617 281.875 165.9375 281.875 165.9375 C 283.95592 165.58631 285.59375 164.46264 285.59375 163.375 C 285.59375 162.19826 283.58495 160.97801 281.28125 160.75 L 281.28125 167.5 C 281.28125 167.87216 280.96086 168.15625 280.5625 168.15625 C 280.16151 168.15625 279.84375 167.87216 279.84375 167.5 L 279.84375 160.75 C 277.54791 160.98325 275.65625 162.20087 275.65625 163.375 C 275.65625 164.46264 277.23158 165.58631 279.3125 165.9375 C 279.3125 165.9375 279.44012 166.0617 279.4375 166.1875 C 279.4325 166.34999 279.3125 166.46875 279.3125 166.46875 C 276.45058 166.16212 274.34375 164.90031 274.34375 163.375 C 274.34376 162.08556 275.85053 160.93284 278.0625 160.4375 C 275.45216 159.9212 273.625 158.6475 273.625 157.15625 C 273.625 155.71743 275.33583 154.48525 277.8125 153.9375 C 274.89292 153.36878 272.8125 151.94284 272.8125 150.28125 C 272.8125 148.68255 274.72476 147.36065 277.46875 146.75 C 274.23205 146.11838 271.96875 144.53518 271.96875 142.6875 C 271.96875 141.15957 273.52655 139.77576 275.90625 139 C 276.11068 138.65144 276.64399 138.34455 277.34375 138.21875 C 278.27938 138.05626 279.16614 138.346 279.25 138.8125 C 279.3313 139.27901 278.62313 139.77239 277.6875 139.9375 C 277.221 140.0187 276.77034 139.94075 276.4375 139.84375 C 274.82832 140.55137 273.75 141.66014 273.75 142.6875 C 273.75 144.3491 276.57035 146.03752 279.84375 146.28125 L 279.84375 137.5625 C 279.84375 137.19035 280.16151 136.84375 280.5625 136.84375 z M 273.09375 136.90625 C 270.49652 137.06088 268.0309 137.31312 265.625 137.625 C 265.31312 140.03614 265.05826 142.55378 264.90625 145.15625 C 266.19045 143.75673 267.51722 142.36041 268.90625 140.96875 C 270.30315 139.57186 271.68899 138.19831 273.09375 136.90625 z M 288.09375 136.90625 C 289.50375 138.20094 290.88174 139.56662 292.28125 140.96875 C 293.68076 142.36565 295.05431 143.75149 296.34375 145.15625 C 296.18912 142.54591 295.9395 140.04139 295.625 137.625 C 293.20862 137.30788 290.70408 137.06088 288.09375 136.90625 z M 227.625 137.625 C 228.03474 137.621 228.44151 137.69394 228.9375 137.8125 C 230.92146 138.2921 231.86409 139.3402 231.53125 140.71875 C 231.19578 142.11564 229.91923 142.64896 227.875 142.15625 C 225.9356 141.68975 224.98228 140.56867 225.3125 139.1875 C 225.56214 138.15163 226.39575 137.63851 227.625 137.625 z M 264.90625 137.6875 C 259.9896 138.35842 255.56309 139.36157 251.78125 140.65625 C 253.53458 144.25463 255.93405 148.12845 258.9375 152.09375 C 260.56503 150.02592 262.35515 147.96379 264.25 145.875 C 264.38628 143.06287 264.59962 140.29783 264.90625 137.6875 z M 296.28125 137.6875 C 296.58788 140.30307 296.7986 143.05763 296.9375 145.875 C 298.82448 147.95593 300.62772 150.03641 302.25 152.09375 C 305.24821 148.13894 307.68155 144.30927 309.4375 140.71875 C 305.66091 139.41883 301.19527 138.36367 296.28125 137.6875 z M 250.875 140.96875 C 243.38209 143.7075 238.75 147.69787 238.75 152.625 C 238.75 155.04663 239.87774 157.25859 241.90625 159.1875 C 242.16046 159.08529 242.39397 159 242.6875 159 C 243.90356 159.00001 244.90625 160.00007 244.90625 161.21875 L 244.90625 161.46875 C 246.60192 162.52231 248.60275 163.44521 250.875 164.28125 C 252.80391 160.59901 255.40462 156.64271 258.53125 152.625 C 255.39413 148.59419 252.81178 144.65886 250.875 140.96875 z M 310.3125 141.03125 C 308.37834 144.7135 305.75687 148.60205 302.625 152.625 C 305.75688 156.64533 308.37834 160.59377 310.3125 164.28125 C 317.80279 161.53726 322.4375 157.54689 322.4375 152.625 C 322.4375 150.31344 321.38678 148.26965 319.53125 146.40625 C 319.1486 146.72599 318.69089 146.875 318.15625 146.875 C 316.94019 146.875 315.9375 145.93481 315.9375 144.71875 C 315.93749 144.38853 315.99394 144.0018 316.125 143.71875 C 314.45816 142.70187 312.52185 141.84109 310.3125 141.03125 z M 334.21875 144.375 C 333.93062 144.368 333.62536 144.4018 333.3125 144.4375 C 330.7939 144.72579 329.38389 146.18702 329.625 148.3125 C 329.7377 149.31104 330.20105 149.99216 330.9375 150.40625 C 331.48525 150.71288 332.00469 150.80523 332.90625 150.71875 L 332.78125 149.6875 C 331.39484 149.7478 330.68567 149.26466 330.5625 148.1875 C 330.41049 146.85351 331.47451 145.91289 333.4375 145.6875 C 335.49746 145.45687 336.749 146.13698 336.90625 147.53125 C 337.02419 148.57695 336.54893 149.19639 335.40625 149.4375 L 335.53125 150.40625 L 337.9375 150.0625 L 337.8125 149.15625 L 337.21875 149.21875 C 337.68001 148.63693 337.89898 148.01003 337.8125 147.25 C 337.61528 145.50257 336.23566 144.42162 334.21875 144.375 z M 226.65625 145.78125 C 226.49228 145.77846 226.34374 145.79085 226.1875 145.8125 C 225.25002 145.94235 224.43323 146.38829 223.875 147.0625 C 223.29055 147.7806 223.07096 148.40615 222.96875 150.0625 L 222.84375 152.625 L 223.6875 152.6875 L 223.75 151.71875 L 229.90625 152.03125 L 229.84375 153.09375 L 230.6875 153.15625 L 230.90625 150.65625 C 231.00055 149.15976 230.90112 148.59068 230.5 147.84375 C 229.88411 146.65652 228.67108 145.90423 227.15625 145.8125 C 226.98557 145.802 226.82022 145.78404 226.65625 145.78125 z M 264.1875 146.8125 C 262.45252 148.76762 260.89225 150.69608 259.40625 152.625 C 260.89226 154.55916 262.45252 156.51362 264.1875 158.46875 C 264.1089 156.56342 264.125 154.59847 264.125 152.625 C 264.125 150.63842 264.1088 148.72831 264.1875 146.8125 z M 297 146.8125 C 297.0786 148.72045 297.125 150.6489 297.125 152.625 C 297.12501 154.58799 297.07864 156.5739 297 158.46875 C 298.7245 156.5241 300.36299 154.54606 301.84375 152.625 C 300.36299 150.70132 298.7245 148.75976 297 146.8125 z M 226.25 147.0625 C 226.51007 147.0298 226.80743 147.0449 227.09375 147.0625 C 228.17615 147.1306 228.99418 147.56637 229.5 148.1875 C 229.92981 148.72477 230.09939 149.24562 230.03125 150.34375 L 229.96875 150.875 L 223.8125 150.46875 L 223.875 149.875 C 223.9405 148.83978 224.04196 148.47417 224.40625 148.03125 C 224.81903 147.51823 225.46977 147.16053 226.25 147.0625 z M 279.84375 147.0625 C 276.92416 147.30885 274.40625 148.80049 274.40625 150.28125 C 274.40625 151.76725 276.9294 153.32139 279.84375 153.5625 L 279.84375 147.0625 z M 281.28125 147.0625 L 281.28125 153.5625 C 284.2087 153.32139 286.78125 151.76725 286.78125 150.28125 C 286.78125 148.79524 284.20084 147.30099 281.28125 147.0625 z M 258.9375 153.15625 C 255.93667 157.11106 253.4747 160.97461 251.71875 164.5625 C 255.50059 165.86505 259.98174 166.88633 264.90625 167.5625 C 264.59962 164.95741 264.38628 162.24439 264.25 159.4375 C 262.35253 157.34347 260.57027 155.22669 258.9375 153.15625 z M 302.25 153.15625 C 300.6251 155.21621 298.82449 157.29145 296.9375 159.375 C 296.80122 162.18975 296.58788 164.94955 296.28125 167.5625 C 301.19265 166.88895 305.66091 165.91969 309.4375 164.625 C 307.68155 161.03187 305.24821 157.11368 302.25 153.15625 z M 329.96875 153.21875 L 329.8125 156.4375 L 330.6875 156.4375 L 330.75 155.4375 L 336.90625 155.71875 L 336.84375 156.6875 L 337.75 156.75 L 337.875 153.5625 L 337.03125 153.5 L 336.96875 154.46875 L 330.8125 154.21875 L 330.8125 153.21875 L 329.96875 153.21875 z M 279.84375 154.28125 C 277.24652 154.52236 275.0625 155.83798 275.0625 157.15625 C 275.0625 158.47714 277.25438 159.85526 279.84375 160.09375 L 279.84375 154.28125 z M 281.28125 154.28125 L 281.28125 160.09375 C 283.88372 159.85788 286.125 158.47976 286.125 157.15625 C 286.125 155.83274 283.87848 154.5145 281.28125 154.28125 z M 223.8125 155.90625 L 222.90625 156.03125 L 223.34375 159.0625 L 224.15625 159 L 224 157.9375 L 226.3125 157.625 C 227.52594 157.4494 228.57223 157.24838 229.5 157.09375 C 228.39139 157.83545 226.80257 158.94641 225.90625 159.59375 L 223.625 161.34375 L 223.9375 163.71875 L 224.8125 163.625 L 224.65625 162.59375 L 230.8125 161.8125 L 230.96875 162.78125 L 231.8125 162.71875 L 231.34375 159.65625 L 230.5625 159.78125 L 230.6875 160.8125 L 228.21875 161.15625 C 227.85446 161.20345 225.81949 161.50928 224.71875 161.6875 C 224.952 161.5119 225.21716 161.32136 225.46875 161.15625 C 226.81323 160.25731 227.18273 160.03403 228.34375 159.1875 L 231.03125 157.15625 L 230.90625 156.03125 L 223.9375 156.96875 L 223.8125 155.90625 z M 329.6875 158.40625 L 328.71875 164.09375 L 330.8125 164.5 L 331 163.5 L 329.75 163.25 L 330.15625 160.75 L 332.96875 161.21875 L 332.5 164.03125 L 333.375 164.15625 L 333.8125 161.34375 L 336.25 161.75 L 335.84375 164.21875 L 334.8125 164.03125 L 334.625 165.03125 L 336.5 165.34375 L 337.5 159.71875 L 336.65625 159.59375 L 336.4375 160.5625 L 330.34375 159.5 L 330.5625 158.53125 L 329.6875 158.40625 z M 296.34375 160.09375 C 295.04907 161.50375 293.68077 162.97287 292.28125 164.375 C 290.88961 165.76928 289.49589 167.0543 288.09375 168.34375 C 290.69622 168.18912 293.21385 167.9395 295.625 167.625 C 295.93688 165.21123 296.18912 162.69884 296.34375 160.09375 z M 264.90625 160.15625 C 265.05826 162.75086 265.31312 165.21909 265.625 167.625 C 268.02828 167.93688 270.49914 168.19174 273.09375 168.34375 C 271.69685 167.05693 270.29267 165.76403 268.90625 164.375 C 267.51198 162.98073 266.19307 161.55576 264.90625 160.15625 z M 232 164.15625 L 231.21875 164.4375 L 231.53125 165.46875 L 225.53125 170 L 225.90625 171.125 L 233.4375 171.1875 L 233.78125 172.15625 L 234.5625 171.84375 L 233.65625 169.09375 L 232.9375 169.34375 L 233.1875 170.1875 L 231.46875 170.1875 L 230.625 167.625 L 232 166.59375 L 232.28125 167.5 L 233.0625 167.25 L 232 164.15625 z M 251.34375 165.46875 C 247.98124 172.70744 247.51955 178.76956 251 182.25 C 252.638 183.89063 254.85822 184.6875 257.5 184.6875 C 257.60746 184.4359 257.73308 184.14193 257.9375 183.9375 C 258.79713 183.07525 260.17162 183.07525 261.03125 183.9375 C 261.10725 184.0135 261.21835 184.13489 261.28125 184.21875 C 263.30976 183.76797 265.46707 182.97816 267.78125 181.90625 C 266.54685 177.93572 265.65763 173.33419 265.03125 168.28125 C 259.9626 167.65488 255.31952 166.70839 251.34375 165.46875 z M 309.84375 165.46875 C 305.87584 166.70315 301.27168 167.65226 296.21875 168.28125 C 295.59237 173.34729 294.64327 177.92785 293.40625 181.90625 C 300.6397 185.26875 306.67843 185.73044 310.15625 182.25 C 311.75757 180.64868 312.55968 178.52928 312.59375 175.96875 C 312.11414 175.91635 311.65078 175.68204 311.28125 175.3125 C 310.42162 174.45288 310.419 173.08099 311.28125 172.21875 C 311.5145 171.98549 311.76897 171.79496 312.0625 171.6875 C 311.60386 169.73762 310.86587 167.67285 309.84375 165.46875 z M 328.25 165.9375 L 327.28125 168.8125 L 328.0625 169.09375 L 328.375 168.09375 L 330.75 168.9375 C 331.09594 169.05806 333.03232 169.7218 334.09375 170.0625 C 333.80807 170.1123 333.51752 170.15867 333.21875 170.1875 C 331.61219 170.38143 331.16524 170.43086 329.75 170.65625 L 326.40625 171.1875 L 326.03125 172.28125 L 332.65625 174.65625 L 332.3125 175.625 L 333.09375 175.90625 L 334.15625 173 L 333.375 172.6875 L 333.03125 173.71875 L 330.875 172.9375 C 329.71398 172.54176 328.61769 172.19192 327.71875 171.90625 C 329.04226 171.74901 330.97225 171.48285 332.0625 171.3125 L 334.9375 170.84375 L 335.71875 168.5625 L 334.9375 168.28125 L 334.53125 169.21875 L 328.71875 167.1875 L 329.09375 166.1875 L 328.25 165.9375 z M 229.90625 168.09375 L 230.625 170.1875 L 229.25 170.1875 C 227.9658 170.2137 227.21651 170.25746 226.75 170.3125 C 227.28203 170.00062 227.57568 169.76306 228.78125 168.9375 L 229.90625 168.09375 z M 265.6875 168.34375 C 266.35843 173.25777 267.33294 177.68953 268.625 181.46875 C 272.2129 179.7128 276.08168 177.30809 280.03125 174.3125 C 277.97128 172.68235 275.89605 170.89223 273.8125 169 C 271.00823 168.86109 268.29259 168.64776 265.6875 168.34375 z M 295.5 168.34375 C 292.88705 168.653 290.18975 168.8611 287.375 169 C 285.28883 170.89485 283.21883 172.68235 281.15625 174.3125 C 285.11368 177.31595 288.93811 179.77006 292.53125 181.53125 C 293.83117 177.74417 294.82383 173.27088 295.5 168.34375 z M 274.78125 169.09375 C 276.72851 170.82087 278.70394 172.39161 280.625 173.875 C 282.5513 172.39161 284.42512 170.82349 286.375 169.09375 C 284.46967 169.17235 282.59847 169.21875 280.625 169.21875 C 278.65415 169.21875 276.68658 169.17239 274.78125 169.09375 z M 234.96875 172.875 L 234.21875 173.28125 L 234.6875 174.1875 L 232.84375 176.75 C 231.96315 175.83009 231.20136 175.69983 230.25 176.21875 C 229.53452 176.60663 229.19012 177.20327 229.1875 178 C 229.18749 178.63686 229.31799 179.03779 230.09375 180.46875 L 231.46875 183.03125 L 232.1875 182.5625 L 231.75 181.71875 L 237.1875 178.78125 L 237.625 179.625 L 238.4375 179.21875 L 236.90625 176.46875 L 236.1875 176.875 L 236.65625 177.71875 L 234.21875 179.03125 L 233.5 177.65625 L 235.875 174.59375 L 234.96875 172.875 z M 280.625 174.71875 C 276.60991 177.85062 272.64837 180.43822 268.96875 182.375 C 271.71012 189.87839 275.70311 194.5625 280.625 194.5625 C 282.90511 194.5625 284.93882 193.56099 286.78125 191.75 C 286.58731 191.41978 286.53125 191.03647 286.53125 190.625 C 286.53125 189.40894 287.46883 188.40625 288.6875 188.40625 C 288.91027 188.40625 289.14195 188.40825 289.34375 188.46875 C 290.4209 186.74949 291.36961 184.69704 292.21875 182.375 C 288.53389 180.43823 284.64795 177.85587 280.625 174.71875 z M 324.84375 174.90625 L 323.53125 177 C 322.74762 178.27896 322.55464 178.83835 322.5625 179.6875 C 322.5468 181.02412 323.30169 182.29964 324.59375 183.09375 C 325.76002 183.80923 326.98535 183.94292 328.0625 183.5 C 328.91688 183.14357 329.35126 182.66524 330.21875 181.25 L 331.59375 179.03125 L 330.875 178.59375 L 330.28125 179.5 L 325.03125 176.21875 L 325.5625 175.375 L 324.84375 174.90625 z M 231.40625 177.125 C 231.61002 177.121 231.81523 177.17251 232 177.28125 C 232.31974 177.46733 232.53611 177.643 233 178.5 L 233.5 179.4375 L 231.21875 180.6875 L 230.6875 179.8125 C 230.24721 178.99742 230.17198 178.67377 230.15625 178.375 C 230.11955 177.90587 230.33814 177.53809 230.8125 177.28125 C 231.03134 177.16332 231.20248 177.12926 231.40625 177.125 z M 324.46875 177.28125 L 329.6875 180.46875 L 329.375 181 C 328.83249 181.88321 328.52679 182.15485 328 182.375 C 327.19279 182.72095 326.22756 182.59755 325.25 182 C 324.32484 181.43128 323.68588 180.66386 323.53125 179.875 C 323.40283 179.19883 323.55102 178.657 324.125 177.71875 L 324.46875 177.28125 z M 239.59375 182.5 C 238.99096 182.521 238.54571 182.76275 237.5 183.625 L 234.5625 186.0625 L 233.90625 185.25 L 233.25 185.84375 L 235.21875 188.21875 L 235.875 187.625 L 235.21875 186.84375 L 238.09375 184.40625 C 239.01628 183.64359 239.17522 183.59697 239.46875 183.5 C 240.06106 183.31916 240.7337 183.58973 241.25 184.21875 C 241.70602 184.77174 241.81108 185.31959 241.625 185.84375 C 241.50183 186.19494 241.47352 186.24119 240.3125 187.21875 L 237.4375 189.59375 L 236.78125 188.8125 L 236.125 189.3125 L 238.21875 191.875 L 238.875 191.28125 L 238.21875 190.5 L 241.125 188.15625 C 242.23098 187.24421 242.43106 186.96912 242.625 186.5 C 242.94736 185.63512 242.71825 184.59692 241.96875 183.6875 C 241.31092 182.88815 240.41145 182.46593 239.59375 182.5 z M 320.0625 184.09375 C 319.11114 184.07145 318.20762 184.38553 317.5 185.1875 C 316.09525 186.77571 316.36845 188.92187 318.21875 190.5625 C 320.06905 192.20313 322.25149 192.27571 323.65625 190.6875 C 325.04004 189.12025 324.74062 186.90858 322.9375 185.3125 C 321.98877 184.47122 321.01385 184.11603 320.0625 184.09375 z M 319.40625 185.125 C 320.19004 185.033 321.10931 185.43945 322.09375 186.3125 C 323.58499 187.6334 323.93826 189.06094 323 190.125 C 322.05913 191.18643 320.62169 191.01121 319.09375 189.65625 C 317.56582 188.30391 317.218 186.8453 318.15625 185.78125 C 318.51301 185.3783 318.93598 185.18017 319.40625 185.125 z M 246.03125 188.9375 C 245.82798 188.9305 245.64388 188.9536 245.4375 189 C 244.82422 189.1389 244.33202 189.45407 243.71875 190.125 L 244.53125 190.78125 C 245.5193 189.80369 246.40892 189.65427 247.21875 190.375 C 248.22253 191.26345 247.99791 192.76662 246.6875 194.25 C 245.3142 195.80152 243.92333 196.14914 242.875 195.21875 C 242.08613 194.52162 242.06073 193.75861 242.75 192.8125 L 242.03125 192.15625 L 240.40625 193.96875 L 241.125 194.625 L 241.5 194.1875 C 241.5472 194.92918 241.86354 195.49156 242.4375 196 C 243.94185 197.33137 245.98417 196.98074 247.65625 195.09375 C 249.33619 193.19104 249.37994 191.13661 247.78125 189.71875 C 247.21712 189.21752 246.64108 188.95887 246.03125 188.9375 z M 311.28125 191.5625 L 309.25 192.9375 C 308.0156 193.78926 307.55945 194.25549 307.21875 195.03125 C 306.66051 196.24731 306.89299 197.62225 307.75 198.875 C 308.52576 200.00457 309.52385 200.6248 310.6875 200.65625 C 311.61002 200.67985 312.29081 200.47212 313.65625 199.53125 L 315.75 198.03125 L 315.28125 197.375 L 314.4375 197.90625 L 310.96875 192.8125 L 311.8125 192.28125 L 311.28125 191.5625 z M 315.03125 192 C 314.74951 192 314.43365 192.12754 314.21875 192.34375 C 313.78893 192.77356 313.79155 193.41393 314.21875 193.84375 C 314.64856 194.27356 315.38007 194.27356 315.8125 193.84375 C 316.24232 193.41393 316.24232 192.77356 315.8125 192.34375 C 315.5976 192.12753 315.31299 192 315.03125 192 z M 309.96875 193.53125 L 313.4375 198.625 L 312.9375 198.96875 C 312.08049 199.55581 311.72759 199.70322 311.15625 199.6875 C 310.27566 199.6718 309.36871 199.10499 308.71875 198.15625 C 308.10547 197.26255 307.88429 196.3435 308.0625 195.5625 C 308.22237 194.89419 308.62445 194.4675 309.53125 193.84375 L 309.96875 193.53125 z M 250.6875 195.9375 C 250.40577 195.9375 250.12116 196.06634 249.90625 196.28125 C 249.47644 196.71106 249.47906 197.41393 249.90625 197.84375 C 250.33606 198.27618 251.03893 198.27618 251.46875 197.84375 C 251.89856 197.41393 251.89856 196.71107 251.46875 196.28125 C 251.25384 196.06634 250.96924 195.9375 250.6875 195.9375 z M 256.125 196.34375 C 254.90664 196.49712 253.75533 197.3609 253.03125 198.8125 C 251.92788 201.02709 252.44891 203.17889 254.34375 204.125 C 256.2124 205.06063 258.23797 204.1882 259.3125 202.03125 C 260.44207 199.759 259.94183 197.67273 258.03125 196.71875 C 257.55623 196.48157 257.12693 196.36349 256.65625 196.34375 C 256.47974 196.33635 256.29905 196.32184 256.125 196.34375 z M 256.71875 197.3125 C 257.0303 197.3085 257.30788 197.34214 257.625 197.5 C 258.9092 198.1421 259.15962 199.55313 258.21875 201.4375 C 257.32767 203.22227 256.02109 203.91549 254.75 203.28125 C 253.48152 202.64701 253.30933 201.23295 254.21875 199.40625 C 254.90279 198.03621 255.7841 197.32478 256.71875 197.3125 z M 301.78125 197.59375 C 301.30954 197.58775 300.83319 197.69266 300.34375 197.90625 C 298.39911 198.75277 297.73332 200.82674 298.71875 203.09375 C 299.70417 205.36337 301.68035 206.28402 303.625 205.4375 C 305.53819 204.60408 306.14671 202.55572 305.1875 200.34375 C 304.42877 198.60025 303.19637 197.61131 301.78125 197.59375 z M 301.65625 198.5 C 302.59003 198.5577 303.371 199.3326 304 200.78125 C 304.79411 202.61058 304.51868 204.09015 303.21875 204.65625 C 301.91621 205.22234 300.68745 204.43639 299.875 202.5625 C 299.05992 200.68862 299.35371 199.2536 300.65625 198.6875 C 300.98451 198.54401 301.34498 198.48075 301.65625 198.5 z M 265.15625 200.1875 C 264.96192 200.2064 264.76627 200.22475 264.5625 200.28125 C 263.26782 200.61147 262.30481 201.6392 261.875 203.09375 C 261.48449 204.4094 261.63875 205.63735 262.34375 206.5625 C 262.90984 207.29633 263.50292 207.65325 265.09375 208.125 L 267.59375 208.84375 L 267.84375 208 L 266.875 207.75 L 268.625 201.78125 L 269.625 202.09375 L 269.8125 201.25 L 267.4375 200.53125 C 266.35838 200.21282 265.7393 200.13075 265.15625 200.1875 z M 292.625 200.65625 C 292.38108 200.67055 292.16473 200.71441 291.90625 200.78125 C 290.93393 201.03023 290.24676 201.58614 289.9375 202.375 C 289.71211 202.96207 289.72784 203.46054 289.9375 204.34375 L 290.90625 204.0625 C 290.65203 202.69444 291.04281 201.92881 292.09375 201.65625 C 293.39106 201.32079 294.47342 202.27431 294.96875 204.1875 C 295.48505 206.19767 295.01646 207.52381 293.65625 207.875 C 292.63937 208.13971 291.96348 207.72312 291.5625 206.625 L 290.65625 206.875 L 291.25 209.25 L 292.15625 209.03125 L 292.03125 208.46875 C 292.67335 208.84615 293.32081 208.91007 294.0625 208.71875 C 296.00715 208.21555 296.84774 206.3176 296.21875 203.875 C 295.66608 201.72626 294.33244 200.55639 292.625 200.65625 z M 265.6875 201.0625 C 266.03836 201.0645 266.40941 201.15655 266.9375 201.3125 L 267.4375 201.4375 L 265.6875 207.34375 L 265.09375 207.21875 C 264.10047 206.92522 263.81732 206.73465 263.46875 206.28125 C 262.92625 205.58673 262.73752 204.56949 263.0625 203.46875 C 263.37176 202.42567 263.96678 201.66631 264.6875 201.3125 C 264.99676 201.16311 265.33664 201.0602 265.6875 201.0625 z M 272.8125 201.71875 L 272.09375 208.71875 L 271.125 208.65625 L 271 209.5 L 274.0625 209.84375 L 274.125 208.96875 L 273.09375 208.84375 L 273.34375 206.5625 C 273.44596 205.33858 273.47359 204.28462 273.53125 203.34375 C 274.00562 204.59125 274.75769 206.38675 275.1875 207.40625 L 276.375 210.03125 L 278.71875 210.21875 L 278.84375 209.375 L 277.8125 209.3125 L 278.40625 203.15625 L 279.4375 203.21875 L 279.5 202.375 L 276.4375 202.09375 L 276.375 202.875 L 277.40625 203.03125 L 277.21875 205.5 C 277.18465 205.86691 276.951 207.91478 276.875 209.03125 C 276.75706 208.76393 276.66471 208.47054 276.5625 208.1875 C 275.98854 206.67267 275.87335 206.22452 275.3125 204.90625 L 273.9375 201.84375 L 272.8125 201.71875 z M 287.3125 201.84375 L 281.53125 202.3125 L 281.65625 204.46875 L 282.65625 204.40625 L 282.59375 203.09375 L 285.15625 202.875 L 285.34375 205.71875 L 282.53125 205.96875 L 282.59375 206.8125 L 285.40625 206.625 L 285.59375 209.03125 L 283.1875 209.25 L 283.03125 208.1875 L 282.0625 208.25 L 282.1875 210.21875 L 287.90625 209.78125 L 287.84375 208.90625 L 286.84375 208.96875 L 286.3125 202.8125 L 287.375 202.75 L 287.3125 201.84375 z "
       id="path4665"
       transform="translate(0,308.2677)" />
    <g
       id="g4700"
       transform="matrix(1.4355118,0,0,1.4355118,-382.7076,-304.04985)"
       style="opacity:0.85">
      <text
         sodipodi:linespacing="125%"
         id="text4692"
         y="598.80371"
         x="614.17273"
         style="font-size:14px;font-style:normal;font-variant:normal;font-weight:normal;font-stretch:normal;line-height:125%;letter-spacing:0px;word-spacing:0px;fill:#000000;fill-opacity:1;stroke:none;font-family:Arial;-inkscape-font-specification:Arial"
         xml:space="preserve"><tspan
           style="font-weight:bold;-inkscape-font-specification:Arial Bold"
           y="598.80371"
           x="614.17273"
           id="tspan4694"
           sodipodi:role="line">Faculty of Engineering and Computer Science</tspan></text>
      <text
         sodipodi:linespacing="125%"
         id="text4696"
         y="616.98645"
         x="664.24597"
         style="font-size:14px;font-style:normal;font-variant:normal;font-weight:normal;font-stretch:normal;line-height:125%;letter-spacing:0px;word-spacing:0px;fill:#000000;fill-opacity:1;stroke:none;font-family:Arial;-inkscape-font-specification:Arial"
         xml:space="preserve"><tspan
           y="616.98645"
           x="664.24597"
           id="tspan4698"
           sodipodi:role="line">Institute of Neural Information Processing</tspan></text>
    </g>
  </g>
</svg>
